<?xml version="1.0" encoding="iso-8859-1"?>
<!-- Generator: Adobe Illustrator 19.0.0, SVG Export Plug-In . SVG Version: 6.00 Build 0)  -->
<svg version="1.1" id="Capa_1" xmlns="http://www.w3.org/2000/svg" xmlns:xlink="http://www.w3.org/1999/xlink" x="0px" y="0px"
	 viewBox="0 0 47.104 47.104" style="enable-background:new 0 0 47.104 47.104;" xml:space="preserve">
<g>
	<g>
		<path class="arrow" fill='#27ae60' d="M23.552,40.895c-0.256,0-0.512-0.098-0.707-0.293L4.419,22.177c-0.286-0.286-0.372-0.716-0.217-1.09
			c0.155-0.374,0.52-0.617,0.924-0.617h7.868c0.552,0,1,0.448,1,1c0,0.552-0.448,1-1,1H7.54l16.011,16.011L39.563,22.47H23.552
			c-0.552,0-1-0.448-1-1V1c0-0.552,0.448-1,1-1c0.552,0,1,0.448,1,1v19.47h17.425c0.404,0,0.769,0.244,0.924,0.617
			c0.155,0.374,0.069,0.804-0.217,1.09L24.259,40.602C24.063,40.797,23.808,40.895,23.552,40.895z"/>
	</g>
	<g>
		<path fill='#27ae60' d="M41.977,47.104H5.126c-0.552,0-1-0.448-1-1v-9.043c0-0.552,0.448-1,1-1c0.552,0,1,0.448,1,1v8.043h34.851v-8.043
			c0-0.552,0.448-1,1-1c0.552,0,1,0.448,1,1v9.043C42.977,46.656,42.529,47.104,41.977,47.104z"/>
	</g>
</g>
</svg>
