<svg xmlns="http://www.w3.org/2000/svg" xmlns:odm="http://product.corel.com/CGS/11/cddns/" xml:space="preserve" width="8.26772in" height="11.6929in" style="shape-rendering:geometricPrecision; text-rendering:geometricPrecision; image-rendering:optimizeQuality; fill-rule:evenodd"
     viewBox="0 0 8268 11692">
 <defs>
  <style type="text/css">
   <![CDATA[
    .fil0 {fill:#3498db}
   ]]>
  </style>
 </defs>
 <g id="Layer 1">
  <g>
   <circle class="fil0" cx="5757" cy="7978" r="561"/>
   <path class="fil0" d="M1104 3824c1534,-263 1780,286 2687,2625 380,932 732,1122 1344,14l838 -1505c242,-505 -468,-738 -690,-314l-525 951c-189,311 -377,314 -565,7 -418,-601 -137,-1172 -1176,-1996 1270,-194 2579,-146 3769,261 1000,361 -113,1821 -1097,3355 -374,40 -667,358 -667,743 0,99 20,193 55,280 -12,23 -25,46 -37,69 -317,589 -947,541 -1312,0 -1035,-1457 -1278,-3801 -2624,-4490z"/>
  </g>
 </g>
</svg>
